<?xml version="1.0" encoding="UTF-8" standalone="no"?>
<svg
   xmlns:dc="http://purl.org/dc/elements/1.1/"
   xmlns:cc="http://creativecommons.org/ns#"
   xmlns:rdf="http://www.w3.org/1999/02/22-rdf-syntax-ns#"
   xmlns:svg="http://www.w3.org/2000/svg"
   xmlns="http://www.w3.org/2000/svg"
   xmlns:xlink="http://www.w3.org/1999/xlink"
   id="svg8"
   version="1.1"
   viewBox="0 0 26.458333 26.458334"
   height="100"
   width="100">
  <defs
     id="defs2">
    <linearGradient
       id="linearGradient4902">
      <stop
         id="stop4898"
         offset="0"
         style="stop-color:#364eff;stop-opacity:1" />
      <stop
         id="stop4900"
         offset="1"
         style="stop-color:#00e8ff;stop-opacity:1" />
    </linearGradient>
    <linearGradient
       id="linearGradient4616">
      <stop
         id="stop4612"
         offset="0"
         style="stop-color:#1812ff;stop-opacity:1" />
      <stop
         id="stop4614"
         offset="1"
         style="stop-color:#00f9eb;stop-opacity:0" />
    </linearGradient>
    <radialGradient
       gradientUnits="userSpaceOnUse"
       gradientTransform="matrix(3.2128877,0.60786555,-0.48411104,2.5587808,116.52047,-458.7217)"
       r="10.583333"
       fy="291.14468"
       fx="10.744637"
       cy="291.14468"
       cx="10.744637"
       id="radialGradient4906"
       xlink:href="#linearGradient4902" />
    <radialGradient
       gradientUnits="userSpaceOnUse"
       gradientTransform="matrix(1.8622744,-1.0336154e-7,1.3438765e-7,2.4212746,-11.435727,-408.47179)"
       r="5.5615406"
       fy="288.74121"
       fx="13.262239"
       cy="288.74121"
       cx="13.262239"
       id="radialGradient4955"
       xlink:href="#linearGradient4616" />
    <filter
       height="1.284544"
       y="-0.14227202"
       width="1.5081141"
       x="-0.25405707"
       id="filter5056"
       style="color-interpolation-filters:sRGB">
      <feGaussianBlur
         id="feGaussianBlur5058"
         stdDeviation="0.78422473" />
    </filter>
  </defs>
  <metadata
     id="metadata5">
    <rdf:RDF>
      <cc:Work
         rdf:about="">
        <dc:format>image/svg+xml</dc:format>
        <dc:type
           rdf:resource="http://purl.org/dc/dcmitype/StillImage" />
        <dc:title></dc:title>
      </cc:Work>
    </rdf:RDF>
  </metadata>
  <g
     transform="translate(0,-270.54165)"
     id="layer1">
    <path
       id="path3718-37"
       d="m 6.2015215,271.82383 c -1.756912,0 -2.8110544,0.70274 -3.5138239,1.40553 -1.4055249,1.4055 -1.4055296,2.81106 -1.4055296,10.54147 0,7.73039 4.7e-6,9.13593 1.4055296,10.54146 0.7027695,0.70279 1.7569118,1.40553 3.5138239,1.40553 1.7569103,0 2.8110573,-0.70278 3.5138212,-1.40553 0.5405803,-0.54058 0.8720753,-1.08501 1.0767953,-1.98545 0.617623,0.32647 1.379109,0.57992 2.437028,0.57992 1.05825,0 1.819508,-0.25509 2.437028,-0.58197 0.204685,0.90157 0.535833,1.44654 1.076794,1.9875 0.702765,0.70275 1.756912,1.40553 3.513822,1.40553 1.756913,0 2.811057,-0.70274 3.513825,-1.40553 1.405524,-1.40553 1.405529,-2.81107 1.405529,-10.54146 0,-7.73041 -5e-6,-9.13597 -1.405529,-10.54147 -0.702768,-0.70279 -1.756912,-1.40553 -3.513825,-1.40553 -1.75691,0 -2.811057,0.70278 -3.513822,1.40553 -0.702764,0.70274 -1.756912,1.40553 -3.513822,1.40553 -1.756912,0 -2.811058,-0.70279 -3.5138233,-1.40553 -0.7027639,-0.70275 -1.756911,-1.40553 -3.5138212,-1.40553 z"
       style="fill:none;fill-opacity:0.26548671;stroke:#0c0c0d;stroke-width:1.764;stroke-linecap:round;stroke-linejoin:miter;stroke-miterlimit:4;stroke-dasharray:none;stroke-opacity:1;paint-order:normal" />
  </g>
</svg>
