<?xml version="1.0" encoding="UTF-8" standalone="no"?>
<svg
   xmlns:dc="http://purl.org/dc/elements/1.1/"
   xmlns:cc="http://creativecommons.org/ns#"
   xmlns:rdf="http://www.w3.org/1999/02/22-rdf-syntax-ns#"
   xmlns:svg="http://www.w3.org/2000/svg"
   xmlns="http://www.w3.org/2000/svg"
   id="svg4"
   version="1.1"
   viewBox="0 0 26.458333 26.458334">
  <metadata
     id="metadata10">
    <rdf:RDF>
      <cc:Work
         rdf:about="">
        <dc:format>image/svg+xml</dc:format>
        <dc:type
           rdf:resource="http://purl.org/dc/dcmitype/StillImage" />
        <dc:title></dc:title>
      </cc:Work>
    </rdf:RDF>
  </metadata>
  <defs
     id="defs8" />
  <path
     style="opacity:1;stroke:#7f7f80;stroke-opacity:1"
     id="path2"
     opacity=".8"
     d="M6.2015215 1.28218c-1.756912 0-2.8110544.70274-3.5138239 1.40553C1.2821727 4.09321 1.282168 5.49877 1.282168 13.22918c0 7.73039.0000047 9.13593 1.4055296 10.54146.7027695.70279 1.7569118 1.40553 3.5138239 1.40553 1.7569103 0 2.8110573-.70278 3.5138212-1.40553.5405803-.54058.8720753-1.08501 1.0767953-1.98545.617623.32647 1.379109.57992 2.437028.57992 1.05825 0 1.819508-.25509 2.437028-.58197.204685.90157.535833 1.44654 1.076794 1.9875.702765.70275 1.756912 1.40553 3.513822 1.40553 1.756913 0 2.811057-.70274 3.513825-1.40553 1.405524-1.40553 1.405529-2.81107 1.405529-10.54146 0-7.73041-.000005-9.13597-1.405529-10.54147-.702768-.70279-1.756912-1.40553-3.513825-1.40553-1.75691 0-2.811057.70278-3.513822 1.40553-.702764.70274-1.756912 1.40553-3.513822 1.40553-1.756912 0-2.811058-.70279-3.5138233-1.40553-.7027639-.70275-1.756911-1.40553-3.5138212-1.40553z"
     stroke-width="1.764"
     stroke-linecap="round"
     stroke="#d9d9da"
     fill="none" />
</svg>
